# Blender 4.1.1
# www.blender.org
mtllib ground.mtl
o Cube
v -125.000000 5.154255 125.000000
v -125.000000 -0.907540 125.000000
v -125.000000 5.154233 -125.000000
v -125.000000 -0.907562 -125.000000
v 125.000000 5.154255 125.000000
v 125.000000 -0.907540 125.000000
v 125.000000 5.154233 -125.000000
v 125.000000 -0.907562 -125.000000
vn -0.0000 1.0000 -0.0000
vn -0.0000 -0.0000 -1.0000
vn 1.0000 -0.0000 -0.0000
vn -0.0000 -1.0000 -0.0000
vn -1.0000 -0.0000 -0.0000
vn -0.0000 -0.0000 1.0000
vt 0.979697 0.018802
vt 0.005908 0.985240
vt 0.005908 0.018802
vt 0.333333 0.333333
vt 0.000000 0.000000
vt 0.333333 0.000000
vt 0.333333 0.666667
vt 0.000000 0.333333
vt 0.965163 0.675614
vt 0.916905 0.723872
vt 0.916905 0.675614
vt 0.666667 0.333333
vt 0.666667 0.000000
vt 0.666667 0.666667
vt 0.979697 0.985240
vt 0.000000 0.666667
vt 0.965163 0.723872
s 0
usemtl Material.002
f 5/1/1 3/2/1 1/3/1
f 3/4/2 8/5/2 4/6/2
f 7/7/3 6/8/3 8/4/3
f 2/9/4 8/10/4 6/11/4
f 1/12/5 4/6/5 2/13/5
f 5/14/6 2/4/6 6/12/6
f 5/1/1 7/15/1 3/2/1
f 3/4/2 7/8/2 8/5/2
f 7/7/3 5/16/3 6/8/3
f 2/9/4 4/17/4 8/10/4
f 1/12/5 3/4/5 4/6/5
f 5/14/6 1/7/6 2/4/6
o 平面.001
v -25.000000 0.000000 0.000000
v 25.000000 0.000000 0.000000
v -25.000000 0.000000 0.000000
v 25.000000 0.000000 0.000000
vn -0.0000 -0.0000 1.0000
vt 1.000000 0.000000
vt 0.000000 1.000000
vt 0.000000 0.000000
vt 1.000000 1.000000
s 0
usemtl マテリアル
f 10/18/7 11/19/7 9/20/7
f 10/18/7 12/21/7 11/19/7
